<?xml version="1.0" encoding="UTF-8"?>
<svg xmlns="http://www.w3.org/2000/svg" width="800" height="800" viewBox="0 0 800 800" role="img" aria-label="VachaVox logo">
  <defs>
    <linearGradient id="canvasBg" x1="0" y1="0" x2="1" y2="1">
      <stop offset="0" stop-color="#111820"/>
      <stop offset="1" stop-color="#17222D"/>
    </linearGradient>
    <linearGradient id="accentLine" x1="0" y1="0" x2="1" y2="0">
      <stop offset="0" stop-color="#1E71FC"/>
      <stop offset="1" stop-color="#7DADFD"/>
    </linearGradient>
  </defs>
  <rect width="800" height="800" fill="url(#canvasBg)"/>
  <rect x="64" y="64" width="672" height="672" rx="20" fill="#1B242E" opacity="0.56"/>
  <rect x="64" y="64" width="288" height="10" rx="5" fill="url(#accentLine)"/>
  <g transform="translate(64 64) scale(0.34074074074074073)">
    

  <defs>

  </defs>
  
  <g transform="translate(33 13) scale(0.84)">
    <g transform="translate(-18 -23)">
    <rect x="24" y="74" width="11" height="43" rx="5.5" fill="#F8FAFC"/>
    <rect x="47" y="57" width="13" height="76" rx="6.5" fill="#F8FAFC"/>
    <rect x="70" y="68" width="13" height="112" rx="6.5" fill="#F8FAFC"/>
    <rect x="93" y="89" width="13" height="132" rx="6.5" fill="#F8FAFC"/>
    <rect x="116" y="112" width="13" height="118" rx="6.5" fill="#F8FAFC"/>
    <rect x="139" y="134" width="13" height="86" rx="6.5" fill="#1E71FC"/>
    <rect x="162" y="113" width="13" height="86" rx="6.5" fill="#1E71FC"/>
    <rect x="185" y="89" width="13" height="132" rx="6.5" fill="#F8FAFC"/>
    <rect x="208" y="68" width="13" height="112" rx="6.5" fill="#F8FAFC"/>
    <rect x="231" y="57" width="13" height="76" rx="6.5" fill="#F8FAFC"/>
    <rect x="254" y="74" width="11" height="43" rx="5.5" fill="#F8FAFC"/>
    </g>
  </g>
  <text x="326" y="177" font-family="Helvetica Neue, Helvetica, Arial, sans-serif" font-size="118" font-weight="400" letter-spacing="0">
    <tspan fill="#F8FAFC">Vacha</tspan><tspan fill="#1E71FC">Vox</tspan>
  </text>


  </g>
  <text x="64" y="392" fill="#F8FAFC" font-family="Helvetica Neue, Helvetica, Arial, sans-serif" font-size="60" font-weight="500" letter-spacing="0">VachaVox</text>
  <text x="64" y="440" fill="#B8C1CC" font-family="Helvetica Neue, Helvetica, Arial, sans-serif" font-size="23" font-weight="400" letter-spacing="0">Local transcription</text>
  <g transform="translate(544 544) scale(0.75)">
    

  <defs>

  </defs>
  
  <g transform="translate(19.2 24.4) scale(0.86)">
    <g transform="translate(-18 -23)">
    <rect x="24" y="74" width="11" height="43" rx="5.5" fill="#F8FAFC"/>
    <rect x="47" y="57" width="13" height="76" rx="6.5" fill="#F8FAFC"/>
    <rect x="70" y="68" width="13" height="112" rx="6.5" fill="#F8FAFC"/>
    <rect x="93" y="89" width="13" height="132" rx="6.5" fill="#F8FAFC"/>
    <rect x="116" y="112" width="13" height="118" rx="6.5" fill="#F8FAFC"/>
    <rect x="139" y="134" width="13" height="86" rx="6.5" fill="#1E71FC"/>
    <rect x="162" y="113" width="13" height="86" rx="6.5" fill="#1E71FC"/>
    <rect x="185" y="89" width="13" height="132" rx="6.5" fill="#F8FAFC"/>
    <rect x="208" y="68" width="13" height="112" rx="6.5" fill="#F8FAFC"/>
    <rect x="231" y="57" width="13" height="76" rx="6.5" fill="#F8FAFC"/>
    <rect x="254" y="74" width="11" height="43" rx="5.5" fill="#F8FAFC"/>
    </g>
  </g>


  </g>
  <text x="64" y="736" fill="#B8C1CC" font-family="Helvetica Neue, Helvetica, Arial, sans-serif" font-size="18" font-weight="400">vachavox-youtube-profile</text>
</svg>
